<?xml version="1.0"?>
<svg enable-background="new 0 0 32 32" height="32px" id="Layer_1" version="1.0" viewBox="0 0 32 32" width="32px" xml:space="preserve" xmlns="http://www.w3.org/2000/svg" xmlns:xlink="http://www.w3.org/1999/xlink">
    <path d="M14.075,17.789c0.478,0.479,0.478,1.254,0,1.732l-9.89,9.891h5.705c0.678,0,1.225,0.549,1.225,1.227  s-0.547,1.225-1.225,1.225H1.226C0.549,31.863,0,31.316,0,30.639v-8.666c0-0.676,0.549-1.225,1.226-1.225  c0.678,0,1.227,0.549,1.227,1.225v5.709l9.89-9.893c0.239-0.238,0.553-0.359,0.865-0.359C13.521,17.43,13.835,17.551,14.075,17.789z   M30.774,0.137H22.11c-0.678,0-1.226,0.547-1.226,1.225s0.548,1.227,1.226,1.227h5.705L17.79,12.615  c-0.479,0.479-0.479,1.254,0,1.732c0.478,0.479,1.253,0.479,1.732,0L29.548,4.32v5.707c0,0.676,0.549,1.225,1.227,1.225  c0.677,0,1.226-0.549,1.226-1.225V1.361C32,0.684,31.451,0.137,30.774,0.137z" />
</svg>