<?xml version="1.0" standalone="no"?>
<!DOCTYPE svg PUBLIC "-//W3C//DTD SVG 20010904//EN"
 "http://www.w3.org/TR/2001/REC-SVG-20010904/DTD/svg10.dtd">
<svg version="1.0" xmlns="http://www.w3.org/2000/svg"
 width="512.000000pt" height="512.000000pt" viewBox="0 0 512.000000 512.000000"
 preserveAspectRatio="xMidYMid meet">

<g transform="translate(0.000000,512.000000) scale(0.100000,-0.100000)"
fill="#000000" stroke="none">
<path d="M2310 4784 c-134 -185 -248 -338 -254 -340 -6 -2 -181 72 -389 166
-208 93 -381 170 -385 170 -4 0 -27 -190 -50 -422 -24 -232 -44 -423 -45 -425
-2 -1 -193 -21 -425 -45 -232 -23 -422 -46 -422 -50 0 -3 77 -177 170 -385 94
-208 168 -383 166 -389 -2 -6 -155 -120 -340 -254 -185 -133 -336 -246 -336
-250 0 -4 151 -117 336 -250 185 -134 338 -248 340 -254 2 -6 -72 -181 -166
-389 -93 -208 -170 -381 -170 -385 0 -4 190 -27 422 -50 232 -24 423 -44 425
-45 1 -2 22 -193 45 -425 23 -232 45 -422 49 -422 4 0 177 77 385 170 209 94
384 168 390 166 6 -2 120 -155 254 -340 133 -185 246 -336 250 -336 4 0 117
151 250 336 134 185 248 338 254 340 6 2 181 -72 390 -166 208 -93 381 -170
385 -170 4 0 26 190 49 422 23 232 44 423 45 425 2 1 193 21 425 45 232 23
422 46 422 50 0 4 -77 177 -170 385 -94 208 -168 383 -166 389 2 6 155 120
340 254 185 133 336 246 336 250 0 4 -151 117 -336 250 -185 134 -338 248
-340 254 -2 6 72 181 166 389 93 208 170 381 170 385 0 4 -190 27 -422 50
-232 24 -423 44 -425 45 -1 2 -22 193 -45 425 -23 232 -45 422 -49 422 -4 0
-177 -77 -385 -170 -209 -94 -384 -168 -390 -166 -6 2 -120 155 -254 340 -133
185 -246 336 -250 336 -4 0 -117 -151 -250 -336z m-907 -1920 c21 -10 96 -98
217 -252 l185 -237 5 226 c5 242 7 251 59 270 34 13 85 -6 100 -37 15 -34 16
-673 0 -707 -21 -47 -89 -56 -132 -19 -10 9 -97 116 -194 239 -97 123 -180
223 -185 223 -4 0 -8 -97 -8 -216 0 -123 -4 -223 -10 -234 -14 -25 -71 -43
-101 -31 -54 20 -54 17 -54 391 0 370 0 370 50 390 29 12 33 12 68 -6z m1550
-14 c13 -12 33 -88 69 -263 29 -136 55 -247 58 -247 4 0 40 107 80 238 40 130
79 247 86 259 30 49 116 50 148 1 8 -13 47 -127 87 -253 39 -127 75 -234 79
-239 10 -10 7 -25 65 257 26 121 51 228 58 238 16 26 68 42 98 30 36 -13 52
-38 51 -74 -1 -18 -36 -171 -77 -342 -68 -278 -79 -313 -105 -339 -37 -37
-104 -42 -147 -10 -30 22 -51 75 -133 342 -23 72 -44 132 -48 132 -4 0 -36
-95 -72 -212 -70 -228 -87 -260 -149 -279 -45 -13 -101 6 -124 43 -16 24 -167
634 -167 672 0 66 91 96 143 46z m-325 0 c27 -26 28 -70 3 -101 -18 -22 -27
-24 -140 -28 l-121 -3 0 -79 0 -79 94 0 c101 0 151 -12 166 -40 18 -33 11 -68
-16 -89 -23 -18 -41 -21 -135 -21 l-109 0 0 -84 0 -84 124 -3 c105 -3 127 -7
145 -23 28 -26 28 -79 -1 -106 -20 -19 -34 -20 -205 -20 -182 0 -184 0 -208
25 l-25 24 0 339 0 339 25 27 24 26 179 0 c166 0 180 -1 200 -20z"/>
</g>
</svg>
